<?xml version="1.0" standalone="no"?>
<!DOCTYPE svg PUBLIC "-//W3C//DTD SVG 20010904//EN"
 "http://www.w3.org/TR/2001/REC-SVG-20010904/DTD/svg10.dtd">
<svg version="1.0" xmlns="http://www.w3.org/2000/svg"
 width="500.000000pt" height="500.000000pt" viewBox="0 0 500.000000 500.000000"
 preserveAspectRatio="xMidYMid meet">
<metadata>
Created by potrace 1.11, written by Peter Selinger 2001-2013
</metadata>
<g transform="translate(0.000000,500.000000) scale(0.100000,-0.100000)"
fill="#000000" stroke="none">
<path d="M510 4984 c-180 -38 -357 -177 -439 -344 -76 -155 -71 -5 -71 -2140
0 -2135 -5 -1985 71 -2140 83 -169 260 -307 444 -345 60 -13 342 -15 1983 -15
2138 0 1979 -5 2141 72 120 57 232 169 289 289 77 162 72 3 72 2139 0 2136 5
1977 -72 2139 -57 120 -169 232 -289 289 -162 77 -2 72 -2146 71 -1601 0
-1929 -3 -1983 -15z m1910 -1809 l0 -344 44 44 c135 135 389 165 579 69 83
-43 180 -147 227 -245 55 -118 74 -220 67 -378 -7 -187 -47 -306 -144 -425
-97 -120 -211 -176 -374 -183 -156 -8 -255 25 -350 114 l-49 46 0 -72 0 -71
-225 0 -225 0 0 895 0 895 225 0 225 0 0 -345z m-1397 -190 c84 -22 153 -60
208 -115 l49 -49 0 75 0 74 218 -2 217 -3 3 -617 2 -618 -220 0 -220 0 0 76 0
76 -46 -47 c-84 -83 -196 -125 -335 -125 -157 0 -307 66 -397 176 -184 223
-197 630 -29 882 123 184 344 271 550 217z m3412 -19 c87 -27 156 -58 204 -95
l23 -18 -52 -144 c-29 -79 -56 -148 -60 -152 -4 -4 -29 6 -56 22 -113 70 -263
97 -367 67 -120 -35 -179 -128 -179 -286 -1 -100 11 -149 51 -211 81 -129 303
-140 494 -25 l55 34 57 -151 56 -151 -23 -19 c-46 -37 -173 -90 -262 -108
-112 -23 -293 -25 -403 -4 -239 45 -419 221 -467 457 -73 358 98 676 420 782
91 30 137 35 279 32 117 -3 155 -8 230 -30z"/>
<path d="M2554 2641 c-53 -24 -101 -83 -120 -150 -25 -85 -16 -249 18 -322 87
-189 355 -168 424 32 24 72 25 244 0 308 -24 64 -63 110 -110 132 -55 25 -157
25 -212 0z"/>
<path d="M950 2649 c-80 -32 -134 -113 -150 -229 -26 -183 40 -337 157 -369
128 -36 242 15 294 132 19 44 23 69 23 162 1 121 -10 165 -55 232 -39 56 -97
83 -180 82 -35 0 -75 -5 -89 -10z"/>
</g>
</svg>
