<svg id="Layer_1" data-name="Layer 1" xmlns="http://www.w3.org/2000/svg" viewBox="0 0 16 16"><defs><style>.cls-1{fill:#f0f0f0;}.cls-2{fill:#1367ba;}.cls-3{fill:#cc173e;}</style></defs><title>english16</title><path class="cls-1" d="M16,8A8,8,0,1,1,8,0a8,8,0,0,1,8,8Zm0,0" transform="translate(0)"/><path class="cls-2" d="M1.65,3.13A8,8,0,0,0,.28,5.91H4.44Zm0,0" transform="translate(0)"/><path class="cls-2" d="M15.72,5.91a8,8,0,0,0-1.38-2.78L11.56,5.91Zm0,0" transform="translate(0)"/><path class="cls-2" d="M.28,10.09a8,8,0,0,0,1.38,2.78l2.78-2.78Zm0,0" transform="translate(0)"/><path class="cls-2" d="M12.87,1.65A8,8,0,0,0,10.09.28V4.44Zm0,0" transform="translate(0)"/><path class="cls-2" d="M3.13,14.35a8,8,0,0,0,2.78,1.38V11.56Zm0,0" transform="translate(0)"/><path class="cls-2" d="M5.91.28A8,8,0,0,0,3.13,1.65L5.91,4.44Zm0,0" transform="translate(0)"/><path class="cls-2" d="M10.09,15.72a8,8,0,0,0,2.78-1.38l-2.78-2.78Zm0,0" transform="translate(0)"/><path class="cls-2" d="M11.56,10.09l2.78,2.78a8,8,0,0,0,1.38-2.78Zm0,0" transform="translate(0)"/><path class="cls-3" d="M15.93,7H9V.07A8.07,8.07,0,0,0,7,.07V7H.07A8.07,8.07,0,0,0,.07,9H7v6.89a8.07,8.07,0,0,0,2.09,0V9h6.89a8.07,8.07,0,0,0,0-2.09Zm0,0" transform="translate(0)"/><path class="cls-3" d="M10.09,10.09l3.57,3.57q.25-.25.47-.51l-3.06-3.06Zm0,0" transform="translate(0)"/><path class="cls-3" d="M5.91,10.09h0L2.34,13.66q.25.25.51.47l3.06-3.06Zm0,0" transform="translate(0)"/><path class="cls-3" d="M5.91,5.91,2.34,2.34q-.25.25-.47.51L4.93,5.91Zm0,0" transform="translate(0)"/><path class="cls-3" d="M10.09,5.91l3.57-3.57q-.25-.25-.51-.47L10.09,4.93Zm0,0" transform="translate(0)"/></svg>